<svg width="58" height="42" viewBox="0 0 58 42" fill="none" xmlns="http://www.w3.org/2000/svg">
    <path d="M10.1429 34.8285H7.62858C4.85137 34.8285 2.60001 32.5772 2.60001 29.8V7.17139C2.60001 4.39419 4.85137 2.14282 7.62858 2.14282H30.2571C33.0343 2.14282 35.2857 4.39419 35.2857 7.17139V29.8C35.2857 32.5772 33.0343 34.8285 30.2571 34.8285H27.7429M39.0571 34.8285H37.8C36.4114 34.8285 35.2857 33.7028 35.2857 32.3142V10.9428C35.2857 9.55422 36.4114 8.42854 37.8 8.42854H44.1344C44.8982 8.42854 45.6206 8.77573 46.0978 9.37216L54.849 20.3113C55.2057 20.7571 55.4 21.311 55.4 21.8819V32.3142C55.4 33.7028 54.2743 34.8285 52.8857 34.8285M25.2286 33.5714C25.2286 37.0429 22.4144 39.8571 18.9429 39.8571C15.4714 39.8571 12.6571 37.0429 12.6571 33.5714C12.6571 30.0999 15.4714 27.2857 18.9429 27.2857C22.4144 27.2857 25.2286 30.0999 25.2286 33.5714ZM51.6286 33.5714C51.6286 37.0429 48.8144 39.8571 45.3429 39.8571C41.8713 39.8571 39.0571 37.0429 39.0571 33.5714C39.0571 30.0999 41.8713 27.2857 45.3429 27.2857C48.8144 27.2857 51.6286 30.0999 51.6286 33.5714Z" stroke="black" stroke-width="4" stroke-linecap="round"/>
</svg>
