<svg width="54" height="46" viewBox="0 0 54 46" fill="none" xmlns="http://www.w3.org/2000/svg">
    <path fill-rule="evenodd" clip-rule="evenodd" d="M5.67459 5.77456C7.96243 3.48742 11.065 2.20257 14.3 2.20257C17.535 2.20257 20.6376 3.48742 22.9254 5.77456L26.5 9.34611L30.0746 5.77456C31.2 4.60934 32.5462 3.67992 34.0347 3.04053C35.5231 2.40114 37.124 2.06459 38.7439 2.05051C40.3638 2.03643 41.9703 2.34511 43.4696 2.95854C44.969 3.57197 46.3311 4.47785 47.4766 5.62335C48.6221 6.76884 49.528 8.13099 50.1414 9.63033C50.7548 11.1297 51.0635 12.7362 51.0494 14.3561C51.0354 15.976 50.6988 17.5769 50.0594 19.0653C49.42 20.5537 48.4906 21.9 47.3254 23.0254L26.5 43.8538L5.67459 23.0254C3.38745 20.7375 2.1026 17.635 2.1026 14.4C2.1026 11.165 3.38745 8.0624 5.67459 5.77456V5.77456Z" stroke="black" stroke-width="4" stroke-linejoin="round"/>
</svg>
