<svg width="18" height="18" viewBox="0 0 18 18" fill="none" xmlns="http://www.w3.org/2000/svg">
    <path d="M16.2194 14.5224C16.2194 14.5224 15.2539 15.4707 15.0173 15.7488C14.6318 16.1601 14.1777 16.3543 13.5823 16.3543C13.525 16.3543 13.464 16.3543 13.4067 16.3505C12.2733 16.2782 11.2199 15.8364 10.4299 15.4593C8.26985 14.4158 6.37309 12.9342 4.79691 11.0566C3.49551 9.49121 2.62537 8.04394 2.04909 6.49002C1.69416 5.54168 1.56441 4.8028 1.62165 4.10583C1.65982 3.66022 1.83155 3.29078 2.14832 2.97467L3.44971 1.67593C3.63672 1.50073 3.83517 1.40552 4.02981 1.40552C4.27024 1.40552 4.46488 1.55025 4.58701 1.67212C4.59082 1.67593 4.59464 1.67974 4.59846 1.68355C4.83126 1.90064 5.05261 2.12535 5.28541 2.36529C5.40372 2.48717 5.52584 2.60904 5.64797 2.73472L6.68985 3.77448C7.09439 4.17819 7.09439 4.55144 6.68985 4.95515C6.57917 5.0656 6.47231 5.17605 6.36164 5.28269C6.04106 5.61023 6.29289 5.35891 5.96087 5.65598C5.95323 5.6636 5.9456 5.66741 5.94178 5.67503C5.61357 6.00257 5.67463 6.32249 5.74333 6.53958C5.74715 6.55101 5.75096 6.56243 5.75478 6.57386C6.02574 7.22894 6.40739 7.84594 6.98748 8.581L6.9913 8.58481C8.04463 9.87974 9.1552 10.889 10.3803 11.6622C10.5367 11.7612 10.697 11.8412 10.8497 11.9173C10.9871 11.9859 11.1168 12.0507 11.2275 12.1192C11.2428 12.1268 11.258 12.1382 11.2733 12.1459C11.4031 12.2106 11.5252 12.2411 11.6511 12.2411C11.9679 12.2411 12.1664 12.043 12.2312 11.9783L12.9793 11.2317C13.1091 11.1023 13.3151 10.9461 13.5556 10.9461C13.7922 10.9461 13.9868 11.0946 14.1051 11.2241C14.109 11.2279 14.109 11.2279 14.1128 11.2317L16.2156 13.3303C16.6087 13.7188 16.2194 14.5224 16.2194 14.5224Z" stroke="white" stroke-width="2" stroke-linecap="round" stroke-linejoin="round"/>
</svg>
